<?xml version="1.0" encoding="UTF-8"?>
<svg xmlns="http://www.w3.org/2000/svg" width="1200" height="675" viewBox="0 0 1200 675" role="img" aria-label="Dashboard screenshot mockup">
  <defs>
    <linearGradient id="bg" x1="0" y1="0" x2="1" y2="1">
      <stop offset="0%" stop-color="#07111f"/>
      <stop offset="100%" stop-color="#030712"/>
    </linearGradient>
    <linearGradient id="brand" x1="0" y1="0" x2="1" y2="1">
      <stop offset="0%" stop-color="#38bdf8"/>
      <stop offset="55%" stop-color="#2563eb"/>
      <stop offset="100%" stop-color="#7c3aed"/>
    </linearGradient>
    <linearGradient id="green" x1="0" y1="0" x2="1" y2="1">
      <stop offset="0%" stop-color="#34d399"/>
      <stop offset="100%" stop-color="#059669"/>
    </linearGradient>
    <filter id="shadow" x="-20%" y="-20%" width="140%" height="140%">
      <feDropShadow dx="0" dy="16" stdDeviation="18" flood-color="#000000" flood-opacity="0.35"/>
    </filter>
  </defs>
  <rect width="100%" height="100%" fill="url(#bg)"/>
  <circle cx="1080" cy="110" r="220" fill="#2563eb" opacity="0.12"/>
  <circle cx="130" cy="585" r="260" fill="#7c3aed" opacity="0.12"/>
  <g transform="translate(90 90)"><rect width="1020" height="520" rx="28" fill="#0f172a" stroke="#334155" stroke-width="2"/><rect width="1020" height="74" rx="28" fill="#111827"/><text x="34" y="48" font-family="Inter, Arial, sans-serif" font-size="24" font-weight="800" fill="#ffffff">Operations Dashboard</text><text x="760" y="48" font-family="Inter, Arial, sans-serif" font-size="18" fill="#93c5fd">System Healthy</text><g transform="translate(34 108)"><g><rect x="0" y="0" width="205" height="110" rx="22" fill="#0f172a" stroke="#34d399" stroke-opacity="0.55" stroke-width="2"/><text x="28" y="48" font-family="Inter, Arial, sans-serif" font-size="24" font-weight="800" fill="#ffffff">Study Success</text><text x="28" y="88" font-family="Inter, Arial, sans-serif" font-size="18" fill="#cbd5e1">9</text><text x="28" y="122" font-family="Inter, Arial, sans-serif" font-size="18" fill="#cbd5e1">9</text><text x="28" y="156" font-family="Inter, Arial, sans-serif" font-size="18" fill="#cbd5e1">.</text><text x="28" y="190" font-family="Inter, Arial, sans-serif" font-size="18" fill="#cbd5e1">2</text><text x="28" y="224" font-family="Inter, Arial, sans-serif" font-size="18" fill="#cbd5e1">%</text></g><g><rect x="235" y="0" width="205" height="110" rx="22" fill="#0f172a" stroke="#38bdf8" stroke-opacity="0.55" stroke-width="2"/><text x="263" y="48" font-family="Inter, Arial, sans-serif" font-size="24" font-weight="800" fill="#ffffff">Avg Solve Time</text><text x="263" y="88" font-family="Inter, Arial, sans-serif" font-size="18" fill="#cbd5e1">1</text><text x="263" y="122" font-family="Inter, Arial, sans-serif" font-size="18" fill="#cbd5e1">.</text><text x="263" y="156" font-family="Inter, Arial, sans-serif" font-size="18" fill="#cbd5e1">8</text><text x="263" y="190" font-family="Inter, Arial, sans-serif" font-size="18" fill="#cbd5e1">s</text></g><g><rect x="470" y="0" width="205" height="110" rx="22" fill="#0f172a" stroke="#7c3aed" stroke-opacity="0.55" stroke-width="2"/><text x="498" y="48" font-family="Inter, Arial, sans-serif" font-size="24" font-weight="800" fill="#ffffff">Models Synced</text><text x="498" y="88" font-family="Inter, Arial, sans-serif" font-size="18" fill="#cbd5e1">4</text><text x="498" y="122" font-family="Inter, Arial, sans-serif" font-size="18" fill="#cbd5e1">2</text></g><g><rect x="705" y="0" width="205" height="110" rx="22" fill="#0f172a" stroke="#f59e0b" stroke-opacity="0.55" stroke-width="2"/><text x="733" y="48" font-family="Inter, Arial, sans-serif" font-size="24" font-weight="800" fill="#ffffff">Open Alerts</text><text x="733" y="88" font-family="Inter, Arial, sans-serif" font-size="18" fill="#cbd5e1">3</text></g></g><rect x="34" y="252" width="590" height="220" rx="18" fill="#020617" stroke="#1e293b"/><text x="62" y="292" font-family="Inter, Arial, sans-serif" font-size="20" font-weight="800" fill="#ffffff">Load Flow Trend</text><path d="M70 430 C140 380 190 410 250 340 S370 300 440 330 S520 420 590 350" fill="none" stroke="#38bdf8" stroke-width="5"/><rect x="660" y="252" width="326" height="220" rx="18" fill="#020617" stroke="#1e293b"/><text x="688" y="292" font-family="Inter, Arial, sans-serif" font-size="20" font-weight="800" fill="#ffffff">Recent Studies</text><text x="688" y="335" font-family="Inter, Arial, sans-serif" font-size="17" fill="#cbd5e1">Arc Flash - Feeder 12</text><text x="688" y="372" font-family="Inter, Arial, sans-serif" font-size="17" fill="#cbd5e1">Short Circuit - Substation A</text><text x="688" y="409" font-family="Inter, Arial, sans-serif" font-size="17" fill="#cbd5e1">Protection Coordination</text></g>
</svg>