<?xml version="1.0" encoding="UTF-8"?>
<svg xmlns="http://www.w3.org/2000/svg" width="1200" height="675" viewBox="0 0 1200 675" role="img" aria-label="Engineering study screenshot mockup">
  <defs>
    <linearGradient id="bg" x1="0" y1="0" x2="1" y2="1">
      <stop offset="0%" stop-color="#07111f"/>
      <stop offset="100%" stop-color="#030712"/>
    </linearGradient>
    <linearGradient id="brand" x1="0" y1="0" x2="1" y2="1">
      <stop offset="0%" stop-color="#38bdf8"/>
      <stop offset="55%" stop-color="#2563eb"/>
      <stop offset="100%" stop-color="#7c3aed"/>
    </linearGradient>
    <linearGradient id="green" x1="0" y1="0" x2="1" y2="1">
      <stop offset="0%" stop-color="#34d399"/>
      <stop offset="100%" stop-color="#059669"/>
    </linearGradient>
    <filter id="shadow" x="-20%" y="-20%" width="140%" height="140%">
      <feDropShadow dx="0" dy="16" stdDeviation="18" flood-color="#000000" flood-opacity="0.35"/>
    </filter>
  </defs>
  <rect width="100%" height="100%" fill="url(#bg)"/>
  <circle cx="1080" cy="110" r="220" fill="#2563eb" opacity="0.12"/>
  <circle cx="130" cy="585" r="260" fill="#7c3aed" opacity="0.12"/>
  <g transform="translate(90 90)"><rect width="1020" height="520" rx="28" fill="#0f172a" stroke="#334155" stroke-width="2"/><text x="40" y="58" font-family="Inter, Arial, sans-serif" font-size="26" font-weight="900" fill="#ffffff">Engineering Study Results</text><rect x="70" y="110" width="880" height="330" rx="20" fill="#020617" stroke="#1e293b"/><text x="100" y="158" font-family="Inter, Arial, sans-serif" font-size="22" font-weight="800" fill="#ffffff">Arc Flash and Protection Coordination</text><text x="100" y="210" font-family="Inter, Arial, sans-serif" font-size="18" fill="#cbd5e1">Bus 12: Incident Energy = 8.4 cal/cm² | Boundary = 1.8 m | PPE = 2</text><text x="100" y="252" font-family="Inter, Arial, sans-serif" font-size="18" fill="#cbd5e1">Fault Current = 21.7 kA | Clearing Time = 0.20 s | Status = Pass</text><text x="100" y="294" font-family="Inter, Arial, sans-serif" font-size="18" fill="#cbd5e1">Coordination Margin = 0.38 s | Relay Curve = IEC Standard Inverse</text><path d="M120 370 C220 320 300 390 410 335 S620 300 760 350 S860 390 930 330" fill="none" stroke="#38bdf8" stroke-width="5"/></g>
</svg>