<?xml version="1.0" encoding="UTF-8"?>
<svg xmlns="http://www.w3.org/2000/svg" width="1200" height="675" viewBox="0 0 1200 675" role="img" aria-label="Workflow screenshot mockup">
  <defs>
    <linearGradient id="bg" x1="0" y1="0" x2="1" y2="1">
      <stop offset="0%" stop-color="#07111f"/>
      <stop offset="100%" stop-color="#030712"/>
    </linearGradient>
    <linearGradient id="brand" x1="0" y1="0" x2="1" y2="1">
      <stop offset="0%" stop-color="#38bdf8"/>
      <stop offset="55%" stop-color="#2563eb"/>
      <stop offset="100%" stop-color="#7c3aed"/>
    </linearGradient>
    <linearGradient id="green" x1="0" y1="0" x2="1" y2="1">
      <stop offset="0%" stop-color="#34d399"/>
      <stop offset="100%" stop-color="#059669"/>
    </linearGradient>
    <filter id="shadow" x="-20%" y="-20%" width="140%" height="140%">
      <feDropShadow dx="0" dy="16" stdDeviation="18" flood-color="#000000" flood-opacity="0.35"/>
    </filter>
  </defs>
  <rect width="100%" height="100%" fill="url(#bg)"/>
  <circle cx="1080" cy="110" r="220" fill="#2563eb" opacity="0.12"/>
  <circle cx="130" cy="585" r="260" fill="#7c3aed" opacity="0.12"/>
  <g transform="translate(90 90)"><rect width="1020" height="520" rx="28" fill="#0f172a" stroke="#334155" stroke-width="2"/><text x="40" y="58" font-family="Inter, Arial, sans-serif" font-size="26" font-weight="900" fill="#ffffff">Automated Engineering Workflow</text><path d="M 110 220 L 250 220" fill="none" stroke="#38bdf8" stroke-width="4" stroke-linecap="round" marker-end="url(#arrow)"/><defs><marker id="arrow" markerWidth="12" markerHeight="12" refX="10" refY="6" orient="auto"><path d="M2,2 L10,6 L2,10 Z" fill="#38bdf8"/></marker></defs><g filter="url(#shadow)"><rect x="40" y="150" width="210" height="140" rx="18" fill="#0f172a" stroke="#38bdf8" stroke-width="2"/><circle cx="68" cy="180" r="7" fill="url(#brand)"/><text x="86" y="186" font-family="Inter, Arial, sans-serif" font-size="22" font-weight="800" fill="#e5eefb">Import Model</text></g><path d="M 250 220 L 390 220" fill="none" stroke="#38bdf8" stroke-width="4" stroke-linecap="round" marker-end="url(#arrow)"/><defs><marker id="arrow" markerWidth="12" markerHeight="12" refX="10" refY="6" orient="auto"><path d="M2,2 L10,6 L2,10 Z" fill="#38bdf8"/></marker></defs><g filter="url(#shadow)"><rect x="250" y="150" width="210" height="140" rx="18" fill="#0f172a" stroke="#38bdf8" stroke-width="2"/><circle cx="278" cy="180" r="7" fill="url(#brand)"/><text x="296" y="186" font-family="Inter, Arial, sans-serif" font-size="22" font-weight="800" fill="#e5eefb">Validate</text></g><path d="M 460 220 L 600 220" fill="none" stroke="#38bdf8" stroke-width="4" stroke-linecap="round" marker-end="url(#arrow)"/><defs><marker id="arrow" markerWidth="12" markerHeight="12" refX="10" refY="6" orient="auto"><path d="M2,2 L10,6 L2,10 Z" fill="#38bdf8"/></marker></defs><g filter="url(#shadow)"><rect x="460" y="150" width="210" height="140" rx="18" fill="#0f172a" stroke="#7c3aed" stroke-width="2"/><circle cx="488" cy="180" r="7" fill="url(#brand)"/><text x="506" y="186" font-family="Inter, Arial, sans-serif" font-size="22" font-weight="800" fill="#e5eefb">Run Study</text></g><path d="M 670 220 L 810 220" fill="none" stroke="#38bdf8" stroke-width="4" stroke-linecap="round" marker-end="url(#arrow)"/><defs><marker id="arrow" markerWidth="12" markerHeight="12" refX="10" refY="6" orient="auto"><path d="M2,2 L10,6 L2,10 Z" fill="#38bdf8"/></marker></defs><g filter="url(#shadow)"><rect x="670" y="150" width="210" height="140" rx="18" fill="#0f172a" stroke="#2563eb" stroke-width="2"/><circle cx="698" cy="180" r="7" fill="url(#brand)"/><text x="716" y="186" font-family="Inter, Arial, sans-serif" font-size="22" font-weight="800" fill="#e5eefb">Review</text></g><path d="M 880 220 L 980 220" fill="none" stroke="#38bdf8" stroke-width="4" stroke-linecap="round" marker-end="url(#arrow)"/><defs><marker id="arrow" markerWidth="12" markerHeight="12" refX="10" refY="6" orient="auto"><path d="M2,2 L10,6 L2,10 Z" fill="#38bdf8"/></marker></defs><g filter="url(#shadow)"><rect x="880" y="150" width="100" height="140" rx="18" fill="#0f172a" stroke="#34d399" stroke-width="2"/><circle cx="908" cy="180" r="7" fill="url(#brand)"/><text x="926" y="186" font-family="Inter, Arial, sans-serif" font-size="22" font-weight="800" fill="#e5eefb">Export</text></g><rect x="120" y="360" width="780" height="90" rx="18" fill="#020617" stroke="#1e293b"/><text x="150" y="414" font-family="Inter, Arial, sans-serif" font-size="20" font-weight="800" fill="#ffffff">Quality gates: topology, electrical attributes, solver convergence, standards checks, audit logging</text></g>
</svg>