<?xml version="1.0" encoding="UTF-8"?>
<svg xmlns="http://www.w3.org/2000/svg" width="1200" height="675" viewBox="0 0 1200 675" role="img" aria-label="System architecture diagram">
  <defs>
    <linearGradient id="bg" x1="0" y1="0" x2="1" y2="1">
      <stop offset="0%" stop-color="#07111f"/>
      <stop offset="100%" stop-color="#030712"/>
    </linearGradient>
    <linearGradient id="brand" x1="0" y1="0" x2="1" y2="1">
      <stop offset="0%" stop-color="#38bdf8"/>
      <stop offset="55%" stop-color="#2563eb"/>
      <stop offset="100%" stop-color="#7c3aed"/>
    </linearGradient>
    <linearGradient id="green" x1="0" y1="0" x2="1" y2="1">
      <stop offset="0%" stop-color="#34d399"/>
      <stop offset="100%" stop-color="#059669"/>
    </linearGradient>
    <filter id="shadow" x="-20%" y="-20%" width="140%" height="140%">
      <feDropShadow dx="0" dy="16" stdDeviation="18" flood-color="#000000" flood-opacity="0.35"/>
    </filter>
  </defs>
  <rect width="100%" height="100%" fill="url(#bg)"/>
  <circle cx="1080" cy="110" r="220" fill="#2563eb" opacity="0.12"/>
  <circle cx="130" cy="585" r="260" fill="#7c3aed" opacity="0.12"/>
  <path d="M 120 220 L 330 220" fill="none" stroke="#38bdf8" stroke-width="4" stroke-linecap="round" marker-end="url(#arrow)"/><defs><marker id="arrow" markerWidth="12" markerHeight="12" refX="10" refY="6" orient="auto"><path d="M2,2 L10,6 L2,10 Z" fill="#38bdf8"/></marker></defs><g filter="url(#shadow)"><rect x="60" y="155" width="240" height="130" rx="18" fill="#0f172a" stroke="#38bdf8" stroke-width="2"/><circle cx="88" cy="185" r="7" fill="url(#brand)"/><text x="106" y="191" font-family="Inter, Arial, sans-serif" font-size="22" font-weight="800" fill="#e5eefb">Users / UI / MCP</text></g><path d="M 300 220 L 480 220" fill="none" stroke="#38bdf8" stroke-width="4" stroke-linecap="round" marker-end="url(#arrow)"/><defs><marker id="arrow" markerWidth="12" markerHeight="12" refX="10" refY="6" orient="auto"><path d="M2,2 L10,6 L2,10 Z" fill="#38bdf8"/></marker></defs><g filter="url(#shadow)"><rect x="480" y="155" width="250" height="130" rx="18" fill="#0f172a" stroke="#38bdf8" stroke-width="2"/><circle cx="508" cy="185" r="7" fill="url(#brand)"/><text x="526" y="191" font-family="Inter, Arial, sans-serif" font-size="22" font-weight="800" fill="#e5eefb">Security + API Gateway</text></g><path d="M 730 220 L 900 220" fill="none" stroke="#38bdf8" stroke-width="4" stroke-linecap="round" marker-end="url(#arrow)"/><defs><marker id="arrow" markerWidth="12" markerHeight="12" refX="10" refY="6" orient="auto"><path d="M2,2 L10,6 L2,10 Z" fill="#38bdf8"/></marker></defs><g filter="url(#shadow)"><rect x="900" y="155" width="240" height="130" rx="18" fill="#0f172a" stroke="#7c3aed" stroke-width="2"/><circle cx="928" cy="185" r="7" fill="url(#brand)"/><text x="946" y="191" font-family="Inter, Arial, sans-serif" font-size="22" font-weight="800" fill="#e5eefb">Chief Orchestrator</text></g><path d="M 1020 220 L 1120 360" fill="none" stroke="#38bdf8" stroke-width="4" stroke-linecap="round" marker-end="url(#arrow)"/><defs><marker id="arrow" markerWidth="12" markerHeight="12" refX="10" refY="6" orient="auto"><path d="M2,2 L10,6 L2,10 Z" fill="#38bdf8"/></marker></defs><g filter="url(#shadow)"><rect x="820" y="360" width="300" height="150" rx="18" fill="rgba(15,23,42,0.95)" stroke="#2563eb" stroke-width="2"/><circle cx="848" cy="390" r="7" fill="url(#brand)"/><text x="866" y="396" font-family="Inter, Arial, sans-serif" font-size="22" font-weight="800" fill="#e5eefb">Engineering Agents</text></g><path d="M 970 510 L 700 510" fill="none" stroke="#38bdf8" stroke-width="4" stroke-linecap="round" marker-end="url(#arrow)"/><defs><marker id="arrow" markerWidth="12" markerHeight="12" refX="10" refY="6" orient="auto"><path d="M2,2 L10,6 L2,10 Z" fill="#38bdf8"/></marker></defs><g filter="url(#shadow)"><rect x="430" y="440" width="270" height="150" rx="18" fill="rgba(15,23,42,0.95)" stroke="#2563eb" stroke-width="2"/><circle cx="458" cy="470" r="7" fill="url(#brand)"/><text x="476" y="476" font-family="Inter, Arial, sans-serif" font-size="22" font-weight="800" fill="#e5eefb">Calculation Engines</text></g><path d="M 430 510 L 230 510" fill="none" stroke="#38bdf8" stroke-width="4" stroke-linecap="round" marker-end="url(#arrow)"/><defs><marker id="arrow" markerWidth="12" markerHeight="12" refX="10" refY="6" orient="auto"><path d="M2,2 L10,6 L2,10 Z" fill="#38bdf8"/></marker></defs><g filter="url(#shadow)"><rect x="80" y="440" width="300" height="150" rx="18" fill="rgba(15,23,42,0.95)" stroke="#34d399" stroke-width="2"/><circle cx="108" cy="470" r="7" fill="url(#brand)"/><text x="126" y="476" font-family="Inter, Arial, sans-serif" font-size="22" font-weight="800" fill="#e5eefb">Validation + Reports</text></g><g><rect x="390" y="80" width="350" height="70" rx="22" fill="#0f172a" stroke="#38bdf8" stroke-opacity="0.55" stroke-width="2"/><text x="418" y="128" font-family="Inter, Arial, sans-serif" font-size="24" font-weight="800" fill="#ffffff">Knowledge, ETAP, GIS, Data Stores</text></g>
</svg>