<?xml version="1.0" encoding="UTF-8"?>
<svg xmlns="http://www.w3.org/2000/svg" width="1200" height="675" viewBox="0 0 1200 675" role="img" aria-label="GIS integration flow diagram">
  <defs>
    <linearGradient id="bg" x1="0" y1="0" x2="1" y2="1">
      <stop offset="0%" stop-color="#07111f"/>
      <stop offset="100%" stop-color="#030712"/>
    </linearGradient>
    <linearGradient id="brand" x1="0" y1="0" x2="1" y2="1">
      <stop offset="0%" stop-color="#38bdf8"/>
      <stop offset="55%" stop-color="#2563eb"/>
      <stop offset="100%" stop-color="#7c3aed"/>
    </linearGradient>
    <linearGradient id="green" x1="0" y1="0" x2="1" y2="1">
      <stop offset="0%" stop-color="#34d399"/>
      <stop offset="100%" stop-color="#059669"/>
    </linearGradient>
    <filter id="shadow" x="-20%" y="-20%" width="140%" height="140%">
      <feDropShadow dx="0" dy="16" stdDeviation="18" flood-color="#000000" flood-opacity="0.35"/>
    </filter>
  </defs>
  <rect width="100%" height="100%" fill="url(#bg)"/>
  <circle cx="1080" cy="110" r="220" fill="#2563eb" opacity="0.12"/>
  <circle cx="130" cy="585" r="260" fill="#7c3aed" opacity="0.12"/>
  <path d="M 110 300 L 250 300" fill="none" stroke="#38bdf8" stroke-width="4" stroke-linecap="round" marker-end="url(#arrow)"/><defs><marker id="arrow" markerWidth="12" markerHeight="12" refX="10" refY="6" orient="auto"><path d="M2,2 L10,6 L2,10 Z" fill="#38bdf8"/></marker></defs><g filter="url(#shadow)"><rect x="40" y="225" width="210" height="150" rx="18" fill="#0f172a" stroke="#38bdf8" stroke-width="2"/><circle cx="68" cy="255" r="7" fill="url(#brand)"/><text x="86" y="261" font-family="Inter, Arial, sans-serif" font-size="22" font-weight="800" fill="#e5eefb">GIS Sources</text></g><path d="M 250 300 L 390 300" fill="none" stroke="#38bdf8" stroke-width="4" stroke-linecap="round" marker-end="url(#arrow)"/><defs><marker id="arrow" markerWidth="12" markerHeight="12" refX="10" refY="6" orient="auto"><path d="M2,2 L10,6 L2,10 Z" fill="#38bdf8"/></marker></defs><g filter="url(#shadow)"><rect x="250" y="225" width="210" height="150" rx="18" fill="#0f172a" stroke="#38bdf8" stroke-width="2"/><circle cx="278" cy="255" r="7" fill="url(#brand)"/><text x="296" y="261" font-family="Inter, Arial, sans-serif" font-size="22" font-weight="800" fill="#e5eefb">Map Schema</text></g><path d="M 460 300 L 600 300" fill="none" stroke="#38bdf8" stroke-width="4" stroke-linecap="round" marker-end="url(#arrow)"/><defs><marker id="arrow" markerWidth="12" markerHeight="12" refX="10" refY="6" orient="auto"><path d="M2,2 L10,6 L2,10 Z" fill="#38bdf8"/></marker></defs><g filter="url(#shadow)"><rect x="460" y="225" width="210" height="150" rx="18" fill="#0f172a" stroke="#7c3aed" stroke-width="2"/><circle cx="488" cy="255" r="7" fill="url(#brand)"/><text x="506" y="261" font-family="Inter, Arial, sans-serif" font-size="22" font-weight="800" fill="#e5eefb">Validate</text></g><path d="M 670 300 L 810 300" fill="none" stroke="#38bdf8" stroke-width="4" stroke-linecap="round" marker-end="url(#arrow)"/><defs><marker id="arrow" markerWidth="12" markerHeight="12" refX="10" refY="6" orient="auto"><path d="M2,2 L10,6 L2,10 Z" fill="#38bdf8"/></marker></defs><g filter="url(#shadow)"><rect x="670" y="225" width="210" height="150" rx="18" fill="#0f172a" stroke="#2563eb" stroke-width="2"/><circle cx="698" cy="255" r="7" fill="url(#brand)"/><text x="716" y="261" font-family="Inter, Arial, sans-serif" font-size="22" font-weight="800" fill="#e5eefb">Enrich</text></g><path d="M 880 300 L 1020 300" fill="none" stroke="#38bdf8" stroke-width="4" stroke-linecap="round" marker-end="url(#arrow)"/><defs><marker id="arrow" markerWidth="12" markerHeight="12" refX="10" refY="6" orient="auto"><path d="M2,2 L10,6 L2,10 Z" fill="#38bdf8"/></marker></defs><g filter="url(#shadow)"><rect x="880" y="225" width="210" height="150" rx="18" fill="#0f172a" stroke="#34d399" stroke-width="2"/><circle cx="908" cy="255" r="7" fill="url(#brand)"/><text x="926" y="261" font-family="Inter, Arial, sans-serif" font-size="22" font-weight="800" fill="#e5eefb">Study</text></g>
</svg>